<svg width="558" height="97" viewBox="0 0 558 97" fill="none" xmlns="http://www.w3.org/2000/svg">
<path d="M9.08704 33.2123L8.89168e-05 0.448036H5.19949L11.5828 25.8211H11.8867L18.526 0.448036H23.6774L30.3166 25.8371H30.6206L36.9878 0.448036H42.2032L33.1003 33.2123H28.1248L21.2296 8.67109H20.9737L14.0785 33.2123H9.08704ZM51.1102 18.6219V33.2123H46.3267V0.448036H51.0462V12.6386H51.3502C51.9261 11.3161 52.806 10.2656 53.9899 9.48699C55.1737 8.70842 56.7202 8.31913 58.6293 8.31913C60.3145 8.31913 61.7863 8.66576 63.0448 9.35901C64.314 10.0523 65.2952 11.0868 65.9885 12.4626C66.6924 13.8278 67.0443 15.5343 67.0443 17.5821V33.2123H62.2609V18.158C62.2609 16.3555 61.797 14.9584 60.8691 13.9665C59.9412 12.9639 58.6507 12.4626 56.9975 12.4626C55.867 12.4626 54.8538 12.7026 53.9579 13.1826C53.0726 13.6625 52.374 14.3664 51.8621 15.2943C51.3608 16.2116 51.1102 17.3208 51.1102 18.6219ZM75.5714 42.4272C74.8568 42.4272 74.2062 42.3685 73.6196 42.2512C73.033 42.1446 72.5957 42.0272 72.3077 41.8993L73.4596 37.9797C74.3342 38.2143 75.1127 38.3157 75.7953 38.2837C76.4779 38.2517 77.0805 37.9957 77.6031 37.5158C78.1364 37.0358 78.6057 36.2519 79.011 35.164L79.6029 33.5322L70.6119 8.63909H75.7313L81.9546 27.7089H82.2106L88.4339 8.63909H93.5693L83.4425 36.4919C82.9732 37.7717 82.3759 38.8543 81.6507 39.7395C80.9254 40.6354 80.0615 41.3073 79.059 41.7553C78.0564 42.2032 76.8939 42.4272 75.5714 42.4272ZM137.584 11.1028H132.593C132.401 10.0363 132.044 9.0977 131.521 8.28713C130.998 7.47656 130.358 6.78864 129.601 6.22337C128.844 5.6581 127.996 5.23148 127.057 4.94352C126.13 4.65555 125.143 4.51157 124.098 4.51157C122.21 4.51157 120.52 4.98618 119.026 5.9354C117.544 6.88463 116.371 8.27647 115.507 10.1109C114.654 11.9454 114.227 14.1851 114.227 16.8301C114.227 19.4965 114.654 21.7469 115.507 23.5814C116.371 25.4158 117.549 26.8023 119.042 27.7409C120.536 28.6794 122.215 29.1487 124.082 29.1487C125.116 29.1487 126.098 29.0101 127.025 28.7328C127.964 28.4448 128.812 28.0235 129.569 27.4689C130.326 26.9143 130.966 26.2371 131.489 25.4372C132.022 24.6266 132.39 23.6987 132.593 22.6535L137.584 22.6695C137.318 24.28 136.8 25.7624 136.032 27.117C135.275 28.4608 134.299 29.6233 133.105 30.6046C131.921 31.5751 130.566 32.327 129.041 32.8603C127.516 33.3936 125.852 33.6602 124.05 33.6602C121.213 33.6602 118.685 32.9883 116.467 31.6444C114.248 30.2899 112.499 28.3541 111.219 25.8371C109.95 23.3201 109.315 20.3177 109.315 16.8301C109.315 13.3319 109.955 10.3296 111.235 7.82318C112.515 5.30614 114.264 3.3757 116.483 2.03185C118.701 0.677343 121.223 8.76581e-05 124.05 8.76581e-05C125.788 8.76581e-05 127.409 0.250726 128.913 0.752002C130.428 1.24261 131.788 1.96786 132.993 2.92775C134.198 3.87697 135.195 5.03951 135.984 6.41535C136.774 7.78052 137.307 9.34301 137.584 11.1028ZM147.899 18.6219V33.2123H143.116V0.448036H147.835V12.6386H148.139C148.715 11.3161 149.595 10.2656 150.779 9.48699C151.963 8.70842 153.509 8.31913 155.418 8.31913C157.103 8.31913 158.575 8.66576 159.834 9.35901C161.103 10.0523 162.084 11.0868 162.777 12.4626C163.481 13.8278 163.833 15.5343 163.833 17.5821V33.2123H159.05V18.158C159.05 16.3555 158.586 14.9584 157.658 13.9665C156.73 12.9639 155.439 12.4626 153.786 12.4626C152.656 12.4626 151.643 12.7026 150.747 13.1826C149.861 13.6625 149.163 14.3664 148.651 15.2943C148.15 16.2116 147.899 17.3208 147.899 18.6219ZM180.567 33.7082C178.264 33.7082 176.253 33.1803 174.536 32.1244C172.819 31.0685 171.486 29.5913 170.536 27.6929C169.587 25.7944 169.113 23.576 169.113 21.0377C169.113 18.4886 169.587 16.2595 170.536 14.3504C171.486 12.4413 172.819 10.9588 174.536 9.90295C176.253 8.84707 178.264 8.31913 180.567 8.31913C182.871 8.31913 184.881 8.84707 186.599 9.90295C188.316 10.9588 189.649 12.4413 190.598 14.3504C191.547 16.2595 192.022 18.4886 192.022 21.0377C192.022 23.576 191.547 25.7944 190.598 27.6929C189.649 29.5913 188.316 31.0685 186.599 32.1244C184.881 33.1803 182.871 33.7082 180.567 33.7082ZM180.583 29.6927C182.076 29.6927 183.314 29.298 184.295 28.5088C185.276 27.7196 186.001 26.669 186.471 25.3572C186.951 24.0453 187.19 22.6001 187.19 21.0217C187.19 19.4538 186.951 18.014 186.471 16.7022C186.001 15.3796 185.276 14.3184 184.295 13.5185C183.314 12.7186 182.076 12.3187 180.583 12.3187C179.079 12.3187 177.832 12.7186 176.84 13.5185C175.858 14.3184 175.128 15.3796 174.648 16.7022C174.179 18.014 173.944 19.4538 173.944 21.0217C173.944 22.6001 174.179 24.0453 174.648 25.3572C175.128 26.669 175.858 27.7196 176.84 28.5088C177.832 29.298 179.079 29.6927 180.583 29.6927ZM207.712 33.7082C205.408 33.7082 203.398 33.1803 201.681 32.1244C199.964 31.0685 198.63 29.5913 197.681 27.6929C196.732 25.7944 196.257 23.576 196.257 21.0377C196.257 18.4886 196.732 16.2595 197.681 14.3504C198.63 12.4413 199.964 10.9588 201.681 9.90295C203.398 8.84707 205.408 8.31913 207.712 8.31913C210.016 8.31913 212.026 8.84707 213.743 9.90295C215.461 10.9588 216.794 12.4413 217.743 14.3504C218.692 16.2595 219.167 18.4886 219.167 21.0377C219.167 23.576 218.692 25.7944 217.743 27.6929C216.794 29.5913 215.461 31.0685 213.743 32.1244C212.026 33.1803 210.016 33.7082 207.712 33.7082ZM207.728 29.6927C209.221 29.6927 210.458 29.298 211.44 28.5088C212.421 27.7196 213.146 26.669 213.615 25.3572C214.095 24.0453 214.335 22.6001 214.335 21.0217C214.335 19.4538 214.095 18.014 213.615 16.7022C213.146 15.3796 212.421 14.3184 211.44 13.5185C210.458 12.7186 209.221 12.3187 207.728 12.3187C206.224 12.3187 204.976 12.7186 203.985 13.5185C203.003 14.3184 202.273 15.3796 201.793 16.7022C201.324 18.014 201.089 19.4538 201.089 21.0217C201.089 22.6001 201.324 24.0453 201.793 25.3572C202.273 26.669 203.003 27.7196 203.985 28.5088C204.976 29.298 206.224 29.6927 207.728 29.6927ZM242.92 14.6384L238.585 15.4063C238.403 14.8517 238.115 14.3238 237.721 13.8225C237.337 13.3212 236.814 12.9106 236.153 12.5906C235.492 12.2707 234.665 12.1107 233.673 12.1107C232.319 12.1107 231.188 12.4147 230.282 13.0226C229.375 13.6198 228.922 14.3931 228.922 15.3423C228.922 16.1636 229.226 16.8248 229.834 17.3261C230.441 17.8274 231.423 18.238 232.777 18.5579L236.681 19.4538C238.942 19.9764 240.627 20.7817 241.736 21.8696C242.845 22.9574 243.4 24.3706 243.4 26.1091C243.4 27.5809 242.973 28.8928 242.12 30.0446C241.278 31.1858 240.099 32.0817 238.585 32.7323C237.081 33.3829 235.337 33.7082 233.353 33.7082C230.601 33.7082 228.356 33.1216 226.618 31.9484C224.879 30.7645 223.813 29.0847 223.418 26.909L228.042 26.2051C228.33 27.4103 228.922 28.3222 229.818 28.9407C230.713 29.5487 231.881 29.8526 233.321 29.8526C234.889 29.8526 236.142 29.5273 237.081 28.8768C238.019 28.2155 238.489 27.4103 238.489 26.461C238.489 25.6931 238.201 25.0479 237.625 24.5253C237.059 24.0027 236.19 23.608 235.017 23.3414L230.857 22.4295C228.564 21.9069 226.869 21.075 225.77 19.9338C224.682 18.7926 224.138 17.3474 224.138 15.5983C224.138 14.1478 224.543 12.8786 225.354 11.7907C226.165 10.7029 227.285 9.85495 228.714 9.24702C230.143 8.62843 231.78 8.31913 233.625 8.31913C236.281 8.31913 238.371 8.89506 239.896 10.0469C241.422 11.1881 242.429 12.7186 242.92 14.6384ZM259.25 33.7082C256.829 33.7082 254.744 33.1909 252.995 32.1564C251.256 31.1112 249.913 29.6447 248.963 27.7569C248.025 25.8584 247.556 23.6347 247.556 21.0857C247.556 18.5686 248.025 16.3502 248.963 14.4304C249.913 12.5106 251.235 11.0121 252.931 9.93494C254.637 8.85773 256.632 8.31913 258.914 8.31913C260.301 8.31913 261.645 8.54844 262.946 9.00705C264.247 9.46566 265.415 10.1856 266.449 11.1668C267.484 12.148 268.3 13.4225 268.897 14.9904C269.494 16.5475 269.793 18.4406 269.793 20.6697V22.3655H250.259V18.7819H265.105C265.105 17.5234 264.85 16.4089 264.338 15.4383C263.826 14.4571 263.106 13.6838 262.178 13.1186C261.261 12.5533 260.183 12.2707 258.946 12.2707C257.602 12.2707 256.429 12.6013 255.427 13.2626C254.435 13.9131 253.667 14.7664 253.123 15.8223C252.59 16.8675 252.323 18.0033 252.323 19.2299V22.0295C252.323 23.672 252.611 25.0692 253.187 26.2211C253.773 27.3729 254.589 28.2528 255.635 28.8608C256.68 29.458 257.901 29.7567 259.298 29.7567C260.205 29.7567 261.031 29.6287 261.778 29.3727C262.524 29.1061 263.17 28.7114 263.714 28.1888C264.258 27.6662 264.674 27.021 264.961 26.2531L269.489 27.069C269.126 28.4021 268.476 29.57 267.537 30.5726C266.609 31.5644 265.441 32.3377 264.034 32.8923C262.636 33.4362 261.042 33.7082 259.25 33.7082ZM487.932 16.8301C487.932 20.3284 487.292 23.3361 486.012 25.8531C484.732 28.3595 482.978 30.2899 480.749 31.6444C478.53 32.9883 476.008 33.6602 473.181 33.6602C470.344 33.6602 467.811 32.9883 465.582 31.6444C463.364 30.2899 461.615 28.3541 460.335 25.8371C459.055 23.3201 458.415 20.3177 458.415 16.8301C458.415 13.3319 459.055 10.3296 460.335 7.82318C461.615 5.30614 463.364 3.3757 465.582 2.03185C467.811 0.677343 470.344 8.76581e-05 473.181 8.76581e-05C476.008 8.76581e-05 478.53 0.677343 480.749 2.03185C482.978 3.3757 484.732 5.30614 486.012 7.82318C487.292 10.3296 487.932 13.3319 487.932 16.8301ZM483.036 16.8301C483.036 14.1638 482.604 11.9187 481.74 10.0949C480.887 8.26047 479.714 6.87396 478.221 5.9354C476.738 4.98618 475.059 4.51157 473.181 4.51157C471.294 4.51157 469.609 4.98618 468.126 5.9354C466.644 6.87396 465.47 8.26047 464.606 10.0949C463.753 11.9187 463.327 14.1638 463.327 16.8301C463.327 19.4965 463.753 21.7469 464.606 23.5814C465.47 25.4052 466.644 26.7917 468.126 27.7409C469.609 28.6794 471.294 29.1487 473.181 29.1487C475.059 29.1487 476.738 28.6794 478.221 27.7409C479.714 26.7917 480.887 25.4052 481.74 23.5814C482.604 21.7469 483.036 19.4965 483.036 16.8301ZM514.733 8.63909L505.822 33.2123H500.702L491.775 8.63909H496.911L503.134 27.5489H503.39L509.597 8.63909H514.733ZM528.983 33.7082C526.562 33.7082 524.477 33.1909 522.728 32.1564C520.989 31.1112 519.645 29.6447 518.696 27.7569C517.758 25.8584 517.288 23.6347 517.288 21.0857C517.288 18.5686 517.758 16.3502 518.696 14.4304C519.645 12.5106 520.968 11.0121 522.664 9.93494C524.37 8.85773 526.365 8.31913 528.647 8.31913C530.034 8.31913 531.377 8.54844 532.679 9.00705C533.98 9.46566 535.148 10.1856 536.182 11.1668C537.217 12.148 538.033 13.4225 538.63 14.9904C539.227 16.5475 539.526 18.4406 539.526 20.6697V22.3655H519.992V18.7819H534.838C534.838 17.5234 534.582 16.4089 534.07 15.4383C533.558 14.4571 532.839 13.6838 531.911 13.1186C530.993 12.5533 529.916 12.2707 528.679 12.2707C527.335 12.2707 526.162 12.6013 525.159 13.2626C524.168 13.9131 523.4 14.7664 522.856 15.8223C522.322 16.8675 522.056 18.0033 522.056 19.2299V22.0295C522.056 23.672 522.344 25.0692 522.92 26.2211C523.506 27.3729 524.322 28.2528 525.367 28.8608C526.413 29.458 527.634 29.7567 529.031 29.7567C529.938 29.7567 530.764 29.6287 531.511 29.3727C532.257 29.1061 532.903 28.7114 533.446 28.1888C533.99 27.6662 534.406 27.021 534.694 26.2531L539.222 27.069C538.859 28.4021 538.209 29.57 537.27 30.5726C536.342 31.5644 535.174 32.3377 533.766 32.8923C532.369 33.4362 530.775 33.7082 528.983 33.7082ZM544.833 33.2123V8.63909H549.457V12.5426H549.713C550.161 11.2201 550.95 10.1802 552.08 9.423C553.222 8.65509 554.512 8.27113 555.952 8.27113C556.251 8.27113 556.602 8.2818 557.008 8.30313C557.424 8.32446 557.749 8.35112 557.984 8.38312V12.9586C557.792 12.9053 557.45 12.8466 556.96 12.7826C556.469 12.708 555.979 12.6706 555.488 12.6706C554.357 12.6706 553.35 12.9106 552.464 13.3905C551.59 13.8598 550.896 14.5157 550.385 15.3583C549.873 16.1902 549.617 17.1394 549.617 18.206V33.2123H544.833ZM53.6419 65.1638H48.6505C48.4585 64.0972 48.1012 63.1587 47.5786 62.3481C47.056 61.5375 46.4161 60.8496 45.6588 60.2843C44.9016 59.7191 44.0537 59.2924 43.1151 59.0045C42.1872 58.7165 41.2007 58.5725 40.1555 58.5725C38.2677 58.5725 36.5772 59.0471 35.084 59.9964C33.6015 60.9456 32.4283 62.3374 31.5644 64.1719C30.7112 66.0063 30.2846 68.2461 30.2846 70.8911C30.2846 73.5575 30.7112 75.8079 31.5644 77.6423C32.4283 79.4768 33.6069 80.8633 35.1 81.8018C36.5932 82.7404 38.273 83.2097 40.1395 83.2097C41.174 83.2097 42.1552 83.071 43.0831 82.7937C44.0217 82.5058 44.8696 82.0845 45.6268 81.5299C46.3841 80.9753 47.024 80.298 47.5466 79.4981C48.0799 78.6875 48.4478 77.7596 48.6505 76.7144L53.6419 76.7304C53.3753 78.3409 52.858 79.8234 52.0901 81.1779C51.3328 82.5218 50.3569 83.6843 49.1624 84.6655C47.9785 85.6361 46.624 86.388 45.0989 86.9213C43.5737 87.4545 41.9099 87.7212 40.1075 87.7212C37.2705 87.7212 34.7427 87.0492 32.5243 85.7054C30.3059 84.3509 28.5568 82.4151 27.2769 79.8981C26.0078 77.381 25.3732 74.3787 25.3732 70.8911C25.3732 67.3928 26.0131 64.3905 27.2929 61.8841C28.5728 59.3671 30.3219 57.4367 32.5403 56.0928C34.7587 54.7383 37.2811 54.061 40.1075 54.061C41.8459 54.061 43.4671 54.3117 44.9709 54.813C46.4854 55.3036 47.8452 56.0288 49.0504 56.9887C50.2556 57.9379 51.2528 59.1005 52.0421 60.4763C52.8313 61.8415 53.3646 63.404 53.6419 65.1638ZM69.5241 87.7692C67.2203 87.7692 65.2099 87.2412 63.4928 86.1853C61.7756 85.1295 60.4424 83.6523 59.4932 81.7538C58.544 79.8554 58.0694 77.637 58.0694 75.0986C58.0694 72.5496 58.544 70.3205 59.4932 68.4114C60.4424 66.5023 61.7756 65.0198 63.4928 63.9639C65.2099 62.908 67.2203 62.3801 69.5241 62.3801C71.8278 62.3801 73.8382 62.908 75.5554 63.9639C77.2725 65.0198 78.6057 66.5023 79.5549 68.4114C80.5041 70.3205 80.9787 72.5496 80.9787 75.0986C80.9787 77.637 80.5041 79.8554 79.5549 81.7538C78.6057 83.6523 77.2725 85.1295 75.5554 86.1853C73.8382 87.2412 71.8278 87.7692 69.5241 87.7692ZM69.5401 83.7536C71.0332 83.7536 72.2704 83.359 73.2516 82.5698C74.2329 81.7805 74.9581 80.73 75.4274 79.4181C75.9073 78.1063 76.1473 76.6611 76.1473 75.0826C76.1473 73.5148 75.9073 72.075 75.4274 70.7631C74.9581 69.4406 74.2329 68.3794 73.2516 67.5795C72.2704 66.7796 71.0332 66.3796 69.5401 66.3796C68.0362 66.3796 66.7884 66.7796 65.7965 67.5795C64.8153 68.3794 64.0847 69.4406 63.6047 70.7631C63.1355 72.075 62.9008 73.5148 62.9008 75.0826C62.9008 76.6611 63.1355 78.1063 63.6047 79.4181C64.0847 80.73 64.8153 81.7805 65.7965 82.5698C66.7884 83.359 68.0362 83.7536 69.5401 83.7536ZM91.1016 72.6829V87.2732H86.3181V62.7H90.9096V66.6996H91.2136C91.7788 65.3984 92.6641 64.3532 93.8693 63.5639C95.0851 62.7747 96.6156 62.3801 98.4607 62.3801C100.135 62.3801 101.602 62.732 102.86 63.436C104.119 64.1292 105.095 65.1638 105.788 66.5396C106.481 67.9154 106.828 69.6166 106.828 71.643V87.2732H102.044V72.2189C102.044 70.4378 101.58 69.046 100.652 68.0434C99.7246 67.0302 98.4501 66.5236 96.8289 66.5236C95.7197 66.5236 94.7332 66.7636 93.8693 67.2435C93.016 67.7235 92.3388 68.4274 91.8375 69.3553C91.3469 70.2725 91.1016 71.3817 91.1016 72.6829ZM133.385 62.7L124.474 87.2732H119.354L110.427 62.7H115.563L121.786 81.6099H122.042L128.249 62.7H133.385ZM147.635 87.7692C145.214 87.7692 143.129 87.2519 141.38 86.2173C139.641 85.1721 138.297 83.7056 137.348 81.8178C136.41 79.9194 135.94 77.6957 135.94 75.1466C135.94 72.6296 136.41 70.4112 137.348 68.4914C138.297 66.5716 139.62 65.0731 141.316 63.9959C143.022 62.9187 145.017 62.3801 147.299 62.3801C148.686 62.3801 150.029 62.6094 151.331 63.068C152.632 63.5266 153.8 64.2465 154.834 65.2278C155.869 66.209 156.685 67.4835 157.282 69.0513C157.879 70.6085 158.178 72.5016 158.178 74.7307V76.4265H138.644V72.8429H153.49C153.49 71.5844 153.234 70.4698 152.722 69.4993C152.211 68.518 151.491 67.7448 150.563 67.1795C149.645 66.6143 148.568 66.3316 147.331 66.3316C145.987 66.3316 144.814 66.6623 143.811 67.3235C142.82 67.9741 142.052 68.8273 141.508 69.8832C140.974 70.9284 140.708 72.0643 140.708 73.2908V76.0905C140.708 77.733 140.996 79.1302 141.572 80.282C142.158 81.4339 142.974 82.3138 144.019 82.9217C145.065 83.519 146.286 83.8176 147.683 83.8176C148.59 83.8176 149.416 83.6896 150.163 83.4337C150.909 83.167 151.555 82.7724 152.099 82.2498C152.642 81.7272 153.058 81.0819 153.346 80.314L157.874 81.1299C157.511 82.4631 156.861 83.631 155.922 84.6335C154.994 85.6254 153.826 86.3986 152.418 86.9532C151.021 87.4972 149.427 87.7692 147.635 87.7692ZM168.269 72.6829V87.2732H163.485V62.7H168.077V66.6996H168.381C168.946 65.3984 169.831 64.3532 171.036 63.5639C172.252 62.7747 173.783 62.3801 175.628 62.3801C177.302 62.3801 178.769 62.732 180.027 63.436C181.286 64.1292 182.262 65.1638 182.955 66.5396C183.648 67.9154 183.995 69.6166 183.995 71.643V87.2732H179.211V72.2189C179.211 70.4378 178.747 69.046 177.82 68.0434C176.892 67.0302 175.617 66.5236 173.996 66.5236C172.887 66.5236 171.9 66.7636 171.036 67.2435C170.183 67.7235 169.506 68.4274 169.005 69.3553C168.514 70.2725 168.269 71.3817 168.269 72.6829ZM201.881 62.7V66.5396H188.458V62.7H201.881ZM192.058 56.8127H196.841V80.058C196.841 80.9859 196.98 81.6845 197.257 82.1538C197.535 82.6124 197.892 82.927 198.329 83.0977C198.777 83.2577 199.262 83.3377 199.785 83.3377C200.169 83.3377 200.505 83.311 200.793 83.2577C201.081 83.2043 201.305 83.1617 201.465 83.1297L202.329 87.0812C202.051 87.1879 201.657 87.2945 201.145 87.4012C200.633 87.5185 199.993 87.5825 199.225 87.5932C197.967 87.6145 196.793 87.3905 195.705 86.9213C194.618 86.452 193.738 85.7267 193.066 84.7455C192.394 83.7643 192.058 82.5324 192.058 81.0499V56.8127ZM207.172 87.2732V62.7H211.956V87.2732H207.172ZM209.588 58.9085C208.756 58.9085 208.041 58.6312 207.444 58.0766C206.858 57.5113 206.564 56.8394 206.564 56.0608C206.564 55.2716 206.858 54.5997 207.444 54.045C208.041 53.4798 208.756 53.1971 209.588 53.1971C210.42 53.1971 211.129 53.4798 211.716 54.045C212.313 54.5997 212.612 55.2716 212.612 56.0608C212.612 56.8394 212.313 57.5113 211.716 58.0766C211.129 58.6312 210.42 58.9085 209.588 58.9085ZM228.742 87.7692C226.438 87.7692 224.428 87.2412 222.71 86.1853C220.993 85.1295 219.66 83.6523 218.711 81.7538C217.762 79.8554 217.287 77.637 217.287 75.0986C217.287 72.5496 217.762 70.3205 218.711 68.4114C219.66 66.5023 220.993 65.0198 222.71 63.9639C224.428 62.908 226.438 62.3801 228.742 62.3801C231.045 62.3801 233.056 62.908 234.773 63.9639C236.49 65.0198 237.823 66.5023 238.773 68.4114C239.722 70.3205 240.196 72.5496 240.196 75.0986C240.196 77.637 239.722 79.8554 238.773 81.7538C237.823 83.6523 236.49 85.1295 234.773 86.1853C233.056 87.2412 231.045 87.7692 228.742 87.7692ZM228.758 83.7536C230.251 83.7536 231.488 83.359 232.469 82.5698C233.45 81.7805 234.176 80.73 234.645 79.4181C235.125 78.1063 235.365 76.6611 235.365 75.0826C235.365 73.5148 235.125 72.075 234.645 70.7631C234.176 69.4406 233.45 68.3794 232.469 67.5795C231.488 66.7796 230.251 66.3796 228.758 66.3796C227.254 66.3796 226.006 66.7796 225.014 67.5795C224.033 68.3794 223.302 69.4406 222.822 70.7631C222.353 72.075 222.118 73.5148 222.118 75.0826C222.118 76.6611 222.353 78.1063 222.822 79.4181C223.302 80.73 224.033 81.7805 225.014 82.5698C226.006 83.359 227.254 83.7536 228.758 83.7536ZM250.319 72.6829V87.2732H245.536V62.7H250.127V66.6996H250.431C250.996 65.3984 251.882 64.3532 253.087 63.5639C254.303 62.7747 255.833 62.3801 257.678 62.3801C259.353 62.3801 260.819 62.732 262.078 63.436C263.336 64.1292 264.312 65.1638 265.005 66.5396C265.699 67.9154 266.045 69.6166 266.045 71.643V87.2732H261.262V72.2189C261.262 70.4378 260.798 69.046 259.87 68.0434C258.942 67.0302 257.668 66.5236 256.047 66.5236C254.937 66.5236 253.951 66.7636 253.087 67.2435C252.234 67.7235 251.556 68.4274 251.055 69.3553C250.564 70.2725 250.319 71.3817 250.319 72.6829ZM279.612 87.8171C278.055 87.8171 276.647 87.5292 275.388 86.9532C274.13 86.3666 273.133 85.5187 272.397 84.4095C271.671 83.3003 271.309 81.9405 271.309 80.33C271.309 78.9435 271.575 77.8023 272.109 76.9064C272.642 76.0105 273.362 75.3013 274.268 74.7787C275.175 74.256 276.188 73.8614 277.308 73.5948C278.428 73.3282 279.569 73.1255 280.732 72.9869C282.204 72.8162 283.398 72.6776 284.315 72.5709C285.232 72.4536 285.899 72.2669 286.315 72.011C286.731 71.755 286.939 71.3391 286.939 70.7631V70.6511C286.939 69.254 286.544 68.1714 285.755 67.4035C284.977 66.6356 283.814 66.2516 282.267 66.2516C280.657 66.2516 279.388 66.6089 278.46 67.3235C277.543 68.0274 276.908 68.8113 276.556 69.6752L272.061 68.6514C272.594 67.1582 273.373 65.953 274.396 65.0358C275.431 64.1079 276.62 63.436 277.964 63.02C279.308 62.5934 280.721 62.3801 282.204 62.3801C283.185 62.3801 284.225 62.4974 285.323 62.732C286.432 62.956 287.467 63.372 288.427 63.9799C289.397 64.5878 290.192 65.4571 290.811 66.5876C291.429 67.7075 291.738 69.1633 291.738 70.9551V87.2732H287.067V83.9136H286.875C286.566 84.5322 286.102 85.1401 285.483 85.7374C284.865 86.3347 284.07 86.8306 283.099 87.2252C282.129 87.6198 280.966 87.8171 279.612 87.8171ZM280.652 83.9776C281.974 83.9776 283.105 83.7163 284.043 83.1937C284.993 82.6711 285.712 81.9885 286.203 81.1459C286.704 80.2927 286.955 79.3808 286.955 78.4102V75.2426C286.784 75.4132 286.454 75.5732 285.963 75.7225C285.483 75.8612 284.934 75.9838 284.315 76.0905C283.697 76.1865 283.094 76.2771 282.507 76.3625C281.921 76.4371 281.43 76.5011 281.036 76.5544C280.108 76.6718 279.26 76.8691 278.492 77.1464C277.735 77.4237 277.127 77.8236 276.668 78.3462C276.22 78.8582 275.996 79.5408 275.996 80.394C275.996 81.5779 276.434 82.4738 277.308 83.0817C278.183 83.679 279.297 83.9776 280.652 83.9776ZM302.893 54.509V87.2732H298.11V54.509H302.893ZM326.578 54.509V87.2732H321.635V54.509H326.578ZM333.394 87.2732V62.7H338.017V66.6036H338.273C338.721 65.2811 339.51 64.2412 340.641 63.484C341.782 62.716 343.072 62.3321 344.512 62.3321C344.811 62.3321 345.163 62.3428 345.568 62.3641C345.984 62.3854 346.309 62.4121 346.544 62.4441V67.0196C346.352 66.9662 346.011 66.9076 345.52 66.8436C345.03 66.7689 344.539 66.7316 344.048 66.7316C342.918 66.7316 341.91 66.9716 341.025 67.4515C340.15 67.9208 339.457 68.5767 338.945 69.4193C338.433 70.2512 338.177 71.2004 338.177 72.2669V87.2732H333.394ZM350.684 87.2732V62.7H355.307V66.6036H355.563C356.011 65.2811 356.8 64.2412 357.931 63.484C359.072 62.716 360.362 62.3321 361.802 62.3321C362.101 62.3321 362.453 62.3428 362.858 62.3641C363.274 62.3854 363.599 62.4121 363.834 62.4441V67.0196C363.642 66.9662 363.301 66.9076 362.81 66.8436C362.32 66.7689 361.829 66.7316 361.338 66.7316C360.208 66.7316 359.2 66.9716 358.315 67.4515C357.44 67.9208 356.747 68.5767 356.235 69.4193C355.723 70.2512 355.467 71.2004 355.467 72.2669V87.2732H350.684ZM367.974 87.2732V62.7H372.757V87.2732H367.974ZM370.389 58.9085C369.557 58.9085 368.843 58.6312 368.246 58.0766C367.659 57.5113 367.366 56.8394 367.366 56.0608C367.366 55.2716 367.659 54.5997 368.246 54.045C368.843 53.4798 369.557 53.1971 370.389 53.1971C371.221 53.1971 371.93 53.4798 372.517 54.045C373.114 54.5997 373.413 55.2716 373.413 56.0608C373.413 56.8394 373.114 57.5113 372.517 58.0766C371.93 58.6312 371.221 58.9085 370.389 58.9085ZM389.495 97.0001C387.543 97.0001 385.864 96.7441 384.456 96.2322C383.059 95.7202 381.917 95.043 381.032 94.2004C380.147 93.3578 379.486 92.4353 379.048 91.4327L383.16 89.7369C383.448 90.2062 383.832 90.7021 384.312 91.2248C384.802 91.758 385.464 92.2113 386.295 92.5846C387.138 92.9579 388.221 93.1445 389.543 93.1445C391.356 93.1445 392.855 92.7019 394.039 91.8167C395.222 90.9421 395.814 89.5449 395.814 87.6252V82.7937H395.51C395.222 83.3163 394.807 83.8976 394.263 84.5375C393.729 85.1775 392.993 85.7321 392.055 86.2013C391.116 86.6706 389.895 86.9053 388.391 86.9053C386.45 86.9053 384.701 86.452 383.144 85.5454C381.597 84.6282 380.371 83.279 379.464 81.4979C378.568 79.7061 378.12 77.5037 378.12 74.8906C378.12 72.2776 378.563 70.0379 379.448 68.1714C380.344 66.305 381.571 64.8758 383.128 63.8839C384.685 62.8814 386.45 62.3801 388.423 62.3801C389.948 62.3801 391.18 62.6361 392.119 63.148C393.057 63.6493 393.788 64.2359 394.311 64.9078C394.844 65.5797 395.254 66.1716 395.542 66.6836H395.894V62.7H400.582V87.8171C400.582 89.9289 400.091 91.662 399.11 93.0165C398.129 94.3711 396.801 95.3736 395.126 96.0242C393.463 96.6748 391.586 97.0001 389.495 97.0001ZM389.447 82.9377C390.823 82.9377 391.985 82.6177 392.935 81.9778C393.895 81.3272 394.62 80.3993 395.11 79.1941C395.612 77.9783 395.862 76.5225 395.862 74.8266C395.862 73.1735 395.617 71.7177 395.126 70.4592C394.636 69.2006 393.916 68.2194 392.967 67.5155C392.017 66.8009 390.844 66.4436 389.447 66.4436C388.007 66.4436 386.807 66.8169 385.848 67.5635C384.888 68.2994 384.162 69.302 383.672 70.5711C383.192 71.8403 382.952 73.2588 382.952 74.8266C382.952 76.4371 383.197 77.8503 383.688 79.0662C384.178 80.282 384.904 81.2312 385.864 81.9138C386.834 82.5964 388.029 82.9377 389.447 82.9377ZM414.148 87.8171C412.591 87.8171 411.183 87.5292 409.925 86.9532C408.666 86.3666 407.669 85.5187 406.933 84.4095C406.208 83.3003 405.845 81.9405 405.845 80.33C405.845 78.9435 406.112 77.8023 406.645 76.9064C407.178 76.0105 407.898 75.3013 408.805 74.7787C409.711 74.256 410.725 73.8614 411.845 73.5948C412.964 73.3282 414.106 73.1255 415.268 72.9869C416.74 72.8162 417.934 72.6776 418.852 72.5709C419.769 72.4536 420.436 72.2669 420.851 72.011C421.267 71.755 421.475 71.3391 421.475 70.7631V70.6511C421.475 69.254 421.081 68.1714 420.292 67.4035C419.513 66.6356 418.35 66.2516 416.804 66.2516C415.193 66.2516 413.924 66.6089 412.996 67.3235C412.079 68.0274 411.445 68.8113 411.093 69.6752L406.597 68.6514C407.13 67.1582 407.909 65.953 408.933 65.0358C409.967 64.1079 411.157 63.436 412.5 63.02C413.844 62.5934 415.257 62.3801 416.74 62.3801C417.721 62.3801 418.761 62.4974 419.86 62.732C420.969 62.956 422.003 63.372 422.963 63.9799C423.934 64.5878 424.728 65.4571 425.347 66.5876C425.966 67.7075 426.275 69.1633 426.275 70.9551V87.2732H421.603V83.9136H421.411C421.102 84.5322 420.638 85.1401 420.02 85.7374C419.401 86.3347 418.606 86.8306 417.636 87.2252C416.665 87.6198 415.503 87.8171 414.148 87.8171ZM415.188 83.9776C416.511 83.9776 417.641 83.7163 418.58 83.1937C419.529 82.6711 420.249 81.9885 420.74 81.1459C421.241 80.2927 421.491 79.3808 421.491 78.4102V75.2426C421.321 75.4132 420.99 75.5732 420.5 75.7225C420.02 75.8612 419.47 75.9838 418.852 76.0905C418.233 76.1865 417.631 76.2771 417.044 76.3625C416.457 76.4371 415.967 76.5011 415.572 76.5544C414.644 76.6718 413.796 76.8691 413.028 77.1464C412.271 77.4237 411.663 77.8236 411.205 78.3462C410.757 78.8582 410.533 79.5408 410.533 80.394C410.533 81.5779 410.97 82.4738 411.845 83.0817C412.719 83.679 413.834 83.9776 415.188 83.9776ZM444.117 62.7V66.5396H430.694V62.7H444.117ZM434.294 56.8127H439.077V80.058C439.077 80.9859 439.216 81.6845 439.493 82.1538C439.771 82.6124 440.128 82.927 440.565 83.0977C441.013 83.2577 441.498 83.3377 442.021 83.3377C442.405 83.3377 442.741 83.311 443.029 83.2577C443.317 83.2043 443.541 83.1617 443.701 83.1297L444.565 87.0812C444.287 87.1879 443.893 87.2945 443.381 87.4012C442.869 87.5185 442.229 87.5825 441.461 87.5932C440.203 87.6145 439.029 87.3905 437.942 86.9213C436.854 86.452 435.974 85.7267 435.302 84.7455C434.63 83.7643 434.294 82.5324 434.294 81.0499V56.8127ZM449.408 87.2732V62.7H454.192V87.2732H449.408ZM451.824 58.9085C450.992 58.9085 450.277 58.6312 449.68 58.0766C449.094 57.5113 448.8 56.8394 448.8 56.0608C448.8 55.2716 449.094 54.5997 449.68 54.045C450.277 53.4798 450.992 53.1971 451.824 53.1971C452.656 53.1971 453.365 53.4798 453.952 54.045C454.549 54.5997 454.848 55.2716 454.848 56.0608C454.848 56.8394 454.549 57.5113 453.952 58.0766C453.365 58.6312 452.656 58.9085 451.824 58.9085ZM470.978 87.7692C468.674 87.7692 466.664 87.2412 464.946 86.1853C463.229 85.1295 461.896 83.6523 460.947 81.7538C459.998 79.8554 459.523 77.637 459.523 75.0986C459.523 72.5496 459.998 70.3205 460.947 68.4114C461.896 66.5023 463.229 65.0198 464.946 63.9639C466.664 62.908 468.674 62.3801 470.978 62.3801C473.281 62.3801 475.292 62.908 477.009 63.9639C478.726 65.0198 480.059 66.5023 481.009 68.4114C481.958 70.3205 482.432 72.5496 482.432 75.0986C482.432 77.637 481.958 79.8554 481.009 81.7538C480.059 83.6523 478.726 85.1295 477.009 86.1853C475.292 87.2412 473.281 87.7692 470.978 87.7692ZM470.994 83.7536C472.487 83.7536 473.724 83.359 474.705 82.5698C475.686 81.7805 476.412 80.73 476.881 79.4181C477.361 78.1063 477.601 76.6611 477.601 75.0826C477.601 73.5148 477.361 72.075 476.881 70.7631C476.412 69.4406 475.686 68.3794 474.705 67.5795C473.724 66.7796 472.487 66.3796 470.994 66.3796C469.49 66.3796 468.242 66.7796 467.25 67.5795C466.269 68.3794 465.538 69.4406 465.058 70.7631C464.589 72.075 464.354 73.5148 464.354 75.0826C464.354 76.6611 464.589 78.1063 465.058 79.4181C465.538 80.73 466.269 81.7805 467.25 82.5698C468.242 83.359 469.49 83.7536 470.994 83.7536ZM492.555 72.6829V87.2732H487.772V62.7H492.363V66.6996H492.667C493.232 65.3984 494.118 64.3532 495.323 63.5639C496.539 62.7747 498.069 62.3801 499.914 62.3801C501.589 62.3801 503.055 62.732 504.314 63.436C505.572 64.1292 506.548 65.1638 507.242 66.5396C507.935 67.9154 508.281 69.6166 508.281 71.643V87.2732H503.498V72.2189C503.498 70.4378 503.034 69.046 502.106 68.0434C501.178 67.0302 499.904 66.5236 498.283 66.5236C497.173 66.5236 496.187 66.7636 495.323 67.2435C494.47 67.7235 493.792 68.4274 493.291 69.3553C492.801 70.2725 492.555 71.3817 492.555 72.6829ZM519.928 77.8503V77.5463C519.949 75.5626 520.147 73.9841 520.52 72.8109C520.904 71.6377 521.448 70.6885 522.152 69.9632C522.856 69.238 523.704 68.5767 524.696 67.9794C525.335 67.5742 525.911 67.1209 526.423 66.6196C526.935 66.1183 527.341 65.5424 527.639 64.8918C527.938 64.2412 528.087 63.5213 528.087 62.732C528.087 61.7828 527.863 60.9616 527.415 60.2683C526.967 59.5751 526.37 59.0418 525.623 58.6685C524.887 58.2846 524.066 58.0926 523.16 58.0926C522.338 58.0926 521.555 58.2632 520.808 58.6045C520.061 58.9458 519.443 59.4791 518.952 60.2043C518.462 60.9189 518.179 61.8415 518.104 62.972H513.241C513.315 61.0522 513.801 59.4311 514.697 58.1086C515.593 56.7754 516.776 55.7675 518.248 55.0849C519.731 54.4023 521.368 54.061 523.16 54.061C525.122 54.061 526.839 54.429 528.311 55.1649C529.783 55.8902 530.924 56.9087 531.735 58.2206C532.556 59.5217 532.967 61.0416 532.967 62.78C532.967 63.9746 532.78 65.0518 532.407 66.0117C532.033 66.9609 531.5 67.8088 530.807 68.5554C530.124 69.302 529.303 69.9632 528.343 70.5391C527.437 71.1044 526.701 71.691 526.135 72.2989C525.581 72.9069 525.175 73.6268 524.919 74.4587C524.664 75.2906 524.525 76.3198 524.504 77.5463V77.8503H519.928ZM522.344 87.5772C521.469 87.5772 520.717 87.2679 520.088 86.6493C519.459 86.02 519.144 85.2628 519.144 84.3775C519.144 83.503 519.459 82.7564 520.088 82.1378C520.717 81.5085 521.469 81.1939 522.344 81.1939C523.208 81.1939 523.954 81.5085 524.584 82.1378C525.223 82.7564 525.543 83.503 525.543 84.3775C525.543 84.9641 525.394 85.5027 525.095 85.9934C524.807 86.4733 524.424 86.8573 523.944 87.1452C523.464 87.4332 522.93 87.5772 522.344 87.5772Z" fill="black"/>
<path d="M287.039 33.2123V0.448036H308.348V5.42346H292.974V14.3184H307.245V19.2939H292.974V28.2368H308.476V33.2123H287.039ZM314.404 33.2123V0.448036H326.69C329.207 0.448036 331.319 0.885319 333.026 1.75988C334.743 2.63445 336.039 3.86097 336.913 5.43946C337.798 7.00728 338.241 8.8364 338.241 10.9268C338.241 13.0279 337.793 14.8517 336.897 16.3982C336.012 17.934 334.705 19.1232 332.978 19.9658C331.25 20.7977 329.127 21.2136 326.61 21.2136H317.859V16.2862H325.81C327.282 16.2862 328.487 16.0836 329.426 15.6783C330.365 15.2623 331.058 14.6597 331.506 13.8705C331.964 13.0706 332.194 12.0894 332.194 10.9268C332.194 9.76429 331.964 8.77241 331.506 7.95117C331.047 7.11927 330.349 6.49001 329.41 6.06339C328.471 5.62611 327.261 5.40746 325.778 5.40746H320.339V33.2123H314.404ZM331.33 18.366L339.441 33.2123H332.818L324.851 18.366H331.33ZM350.6 33.2123L341.353 0.448036H347.736L353.639 24.5253H353.943L360.246 0.448036H366.054L372.373 24.5413H372.661L378.564 0.448036H384.948L375.701 33.2123H369.845L363.286 10.2229H363.03L356.455 33.2123H350.6ZM394.998 0.448036V33.2123H389.063V0.448036H394.998ZM428.351 0.448036V33.2123H423.071L407.633 10.8948H407.361V33.2123H401.426V0.448036H406.737L422.159 22.7815H422.447V0.448036H428.351ZM440.753 0.448036V33.2123H434.818V0.448036H440.753Z" fill="url(#paint0_linear_545_129)"/>
<defs>
<linearGradient id="paint0_linear_545_129" x1="-63.8968" y1="44.2247" x2="621.877" y2="44.2247" gradientUnits="userSpaceOnUse">
<stop stop-color="#2B34E4"/>
<stop offset="1" stop-color="#020771"/>
</linearGradient>
</defs>
</svg>
